<?xml version="1.0" encoding="UTF-8" standalone="no"?>
<!DOCTYPE svg PUBLIC "-//W3C//DTD SVG 1.1//EN" "http://www.w3.org/Graphics/SVG/1.1/DTD/svg11.dtd">
<svg version="1.1" xmlns="http://www.w3.org/2000/svg" xmlns:xlink="http://www.w3.org/1999/xlink" preserveAspectRatio="xMidYMid meet" viewBox="199.00000000000003 139.70834485059788 243.99999999999997 270.6989389373995" width="240" height="258.7"><defs><path d="M379.21 172.38L383.19 174.75L387.07 177.27L390.85 179.93L394.52 182.73L398.08 185.66L401.52 188.73L404.84 191.93L408.03 195.24L411.1 198.68L414.03 202.24L416.83 205.91L419.49 209.69L422.01 213.57L424.38 217.55L426.6 221.63L428.66 225.81L430.56 230.07L432.3 234.42L433.88 238.85L435.28 243.36L436.51 247.94L437.56 252.59L438.43 257.31L439.11 262.09L439.6 266.93L439.9 271.82L440 276.76L439.9 281.7L439.6 286.6L439.11 291.44L438.43 296.22L437.56 300.93L436.51 305.58L435.28 310.17L433.88 314.67L432.3 319.1L430.56 323.45L428.66 327.72L426.6 331.89L424.38 335.97L422.01 339.95L419.49 343.84L416.83 347.61L414.03 351.28L411.1 354.84L408.03 358.28L404.84 361.6L401.52 364.79L398.08 367.86L394.52 370.8L390.85 373.6L387.07 376.26L383.19 378.77L379.21 381.14L375.13 383.36L370.95 385.42L366.69 387.32L362.34 389.07L357.91 390.64L353.4 392.04L348.82 393.27L344.17 394.32L339.45 395.19L334.67 395.87L329.84 396.36L324.94 396.66L320 396.76L315.06 396.66L310.16 396.36L305.33 395.87L300.55 395.19L295.83 394.32L293.24 393.74L293.26 393.63L293.17 393.6L292.33 393.24L291.55 392.76L290.86 392.19L290.26 391.53L289.75 390.79L289.36 389.99L289.08 389.13L288.92 388.24L288.88 387.31L288.99 386.37L290.33 379.29L290.57 378.38L290.94 377.53L291.42 376.75L291.99 376.06L292.65 375.46L293.39 374.96L294.19 374.56L295.04 374.28L295.94 374.12L296.86 374.09L297.8 374.19L298.72 374.44L298.88 374.51L299.86 374.73L303.79 375.45L307.77 376.02L311.8 376.43L315.88 376.68L320 376.76L324.12 376.68L328.2 376.43L332.23 376.02L336.21 375.45L340.14 374.73L344.02 373.85L347.84 372.83L351.59 371.66L355.29 370.35L358.91 368.9L362.46 367.31L365.94 365.59L369.34 363.74L372.66 361.77L375.89 359.67L379.04 357.46L382.1 355.12L385.06 352.68L387.93 350.12L390.7 347.46L393.36 344.69L395.92 341.83L398.36 338.86L400.7 335.8L402.91 332.66L405.01 329.42L406.98 326.1L408.83 322.7L410.55 319.22L412.14 315.67L413.59 312.05L414.9 308.35L416.07 304.6L417.09 300.78L417.97 296.9L418.69 292.97L419.26 288.99L419.67 284.96L419.92 280.88L420 276.76L419.92 272.64L419.67 268.56L419.26 264.53L418.69 260.55L417.97 256.62L417.09 252.74L416.07 248.92L414.9 245.17L413.59 241.48L412.14 237.85L410.55 234.3L408.83 230.82L406.98 227.42L405.01 224.1L402.91 220.87L400.7 217.72L398.36 214.66L395.92 211.7L393.36 208.83L390.7 206.06L387.93 203.4L385.06 200.85L382.1 198.4L379.04 196.07L375.89 193.85L372.66 191.75L369.34 189.78L369.18 189.69L373.44 169.33L375.13 170.16L379.21 172.38ZM329.84 157.16L334.67 157.65L339.45 158.33L344.17 159.2L345 159.39L345.14 159.4L345.51 159.5L346.1 159.64L346.09 159.66L346.9 160.01L347.68 160.49L348.37 161.06L348.97 161.73L349.47 162.46L349.87 163.26L350.15 164.12L350.31 165.01L350.34 165.94L350.24 166.88L348.9 173.96L348.65 174.87L348.29 175.72L347.81 176.5L347.24 177.19L346.58 177.79L345.84 178.29L345.04 178.69L344.18 178.97L343.29 179.13L342.37 179.16L342.02 179.13L342 179.21L340.14 178.79L336.21 178.07L332.23 177.5L328.2 177.09L324.12 176.84L320 176.76L315.88 176.84L311.8 177.09L307.77 177.5L303.79 178.07L299.86 178.79L295.98 179.67L292.16 180.69L288.41 181.86L284.71 183.17L281.09 184.63L277.54 186.21L274.06 187.93L270.66 189.78L267.34 191.75L264.11 193.85L260.96 196.07L257.9 198.4L254.94 200.85L252.07 203.4L249.3 206.06L246.64 208.83L244.08 211.7L241.64 214.66L239.3 217.72L237.09 220.87L234.99 224.1L233.02 227.42L231.17 230.82L229.45 234.3L227.86 237.85L226.41 241.48L225.1 245.17L223.93 248.92L222.91 252.74L222.03 256.62L221.31 260.55L220.74 264.53L220.33 268.56L220.08 272.64L220 276.76L220.08 280.88L220.33 284.96L220.74 288.99L221.31 292.97L222.03 296.9L222.91 300.78L223.93 304.6L225.1 308.35L226.41 312.05L227.86 315.67L229.45 319.22L231.17 322.7L233.02 326.1L234.99 329.42L237.09 332.66L239.3 335.8L241.64 338.86L244.08 341.83L246.64 344.69L249.3 347.46L252.07 350.12L254.94 352.68L257.9 355.12L260.96 357.46L264.11 359.67L267.34 361.77L270.2 363.47L265.93 383.88L264.87 383.36L260.79 381.14L256.81 378.77L252.93 376.26L249.15 373.6L245.48 370.8L241.92 367.86L238.48 364.79L235.16 361.6L231.97 358.28L228.9 354.84L225.97 351.28L223.17 347.61L220.51 343.84L217.99 339.95L215.62 335.97L213.4 331.89L211.34 327.72L209.44 323.45L207.7 319.1L206.12 314.67L204.72 310.17L203.49 305.58L202.44 300.93L201.57 296.22L200.89 291.44L200.4 286.6L200.1 281.7L200 276.76L200.1 271.82L200.4 266.93L200.89 262.09L201.57 257.31L202.44 252.59L203.49 247.94L204.72 243.36L206.12 238.85L207.7 234.42L209.44 230.07L211.34 225.81L213.4 221.63L215.62 217.55L217.99 213.57L220.51 209.69L223.17 205.91L225.97 202.24L228.9 198.68L231.97 195.24L235.16 191.93L238.48 188.73L241.92 185.66L245.48 182.73L249.15 179.93L252.93 177.27L256.81 174.75L260.79 172.38L264.87 170.16L269.05 168.1L273.31 166.2L277.66 164.46L282.09 162.88L286.6 161.48L291.18 160.25L295.83 159.2L300.55 158.33L305.33 157.65L310.16 157.16L315.06 156.86L320 156.76L324.94 156.86L329.84 157.16Z" id="cf1Trt9in"></path><path d="M298.64 264.7C314.41 315.94 324.26 347.96 328.2 360.77C329.34 364.46 333.31 366.46 336.95 365.18C343.3 362.93 356.1 358.42 362.56 356.14C366.33 354.8 369.06 351.49 369.65 347.52C375.67 306.44 392.8 189.68 398.82 148.6C399.22 145.88 396.38 143.83 393.92 145.08C388.88 147.65 385.38 149.44 381.78 151.27C373.54 155.46 367.73 163.26 366.08 172.36C362.81 190.32 354.65 235.23 341.58 307.08C324.42 248.11 313.69 211.26 309.4 196.52C307.83 191.13 302.17 188.04 296.79 189.65C293.43 190.65 292.2 191.01 288.61 192.08C283.33 193.66 279.36 198.06 278.35 203.48C270.77 244.17 249.55 358.05 241.94 398.9C241.35 402.07 244.73 404.49 247.55 402.91C252.68 400.01 257.87 397.09 262.22 394.64C269.21 390.7 274.15 383.92 275.76 376.06C278.81 361.21 286.44 324.1 298.64 264.7Z" id="daEpKqfwb"></path><path d="" id="c34fSlpbCc"></path></defs><g><g><use xlink:href="#cf1Trt9in" opacity="1" fill="#294eb1" fill-opacity="1"></use></g><g><g><filter id="shadow2859337" x="228.88" y="131.71" width="187.98" height="289.7" filterUnits="userSpaceOnUse" primitiveUnits="userSpaceOnUse"><feFlood></feFlood><feComposite in2="SourceAlpha" operator="in"></feComposite><feGaussianBlur stdDeviation="1"></feGaussianBlur><feOffset dx="5" dy="5" result="afterOffset"></feOffset><feFlood flood-color="#000000" flood-opacity="0.5"></feFlood><feComposite in2="afterOffset" operator="in"></feComposite><feMorphology operator="dilate" radius="1"></feMorphology><feComposite in2="SourceAlpha" operator="out"></feComposite></filter><path d="M298.64 264.7C314.41 315.94 324.26 347.96 328.2 360.77C329.34 364.46 333.31 366.46 336.95 365.18C343.3 362.93 356.1 358.42 362.56 356.14C366.33 354.8 369.06 351.49 369.65 347.52C375.67 306.44 392.8 189.68 398.82 148.6C399.22 145.88 396.38 143.83 393.92 145.08C388.88 147.65 385.38 149.44 381.78 151.27C373.54 155.46 367.73 163.26 366.08 172.36C362.81 190.32 354.65 235.23 341.58 307.08C324.42 248.11 313.69 211.26 309.4 196.52C307.83 191.13 302.17 188.04 296.79 189.65C293.43 190.65 292.2 191.01 288.61 192.08C283.33 193.66 279.36 198.06 278.35 203.48C270.77 244.17 249.55 358.05 241.94 398.9C241.35 402.07 244.73 404.49 247.55 402.91C252.68 400.01 257.87 397.09 262.22 394.64C269.21 390.7 274.15 383.92 275.76 376.06C278.81 361.21 286.44 324.1 298.64 264.7Z" id="c3lkzYXt8o" fill="white" fill-opacity="1" filter="url(#shadow2859337)"></path></g><use xlink:href="#daEpKqfwb" opacity="1" fill="#f30707" fill-opacity="1"></use></g><g><g><use xlink:href="#c34fSlpbCc" opacity="1" fill-opacity="0" stroke="#000000" stroke-width="0" stroke-opacity="1"></use></g></g></g></svg>